<svg width="138" height="31" viewBox="0 0 138 31" fill="none" xmlns="http://www.w3.org/2000/svg">
<path d="M0 21H138V31H7C3.13401 31 0 27.866 0 24V21Z" fill="#FF543D"/>
<path d="M6.90325 0C9.27761 0 10.9924 0.641278 12.0477 1.92383C13.1323 3.20639 13.6746 4.88246 13.6746 6.95204L10.201 7.56417C10.2303 6.22332 9.98113 5.15938 9.45349 4.37235C8.95517 3.58533 8.09043 3.19182 6.85928 3.19182C6.15576 3.19182 5.58416 3.35214 5.14446 3.67278C4.70476 3.99342 4.353 4.4015 4.08918 4.89704C3.85468 5.36342 3.69346 5.88811 3.60552 6.47109C3.51758 7.05407 3.47361 7.6079 3.47361 8.13258V23.4795C3.47361 23.9168 3.51758 24.3977 3.60552 24.9224C3.69346 25.418 3.85468 25.8843 4.08918 26.3216C4.353 26.7297 4.6901 27.0795 5.10049 27.3709C5.54019 27.6624 6.11179 27.8082 6.81531 27.8082C7.95852 27.8082 8.79395 27.4584 9.32158 26.7588C9.87853 26.0592 10.1717 24.9516 10.201 23.4358L13.7625 24.048C13.7039 26.2341 13.103 27.9393 11.9598 29.1636C10.8459 30.3879 9.16036 31 6.90325 31C4.58751 31 2.85803 30.3587 1.71482 29.0762C0.571607 27.7936 0 25.9864 0 23.6544V8.61354C0 7.53502 0.0879395 6.48566 0.263818 5.46544C0.46901 4.41608 0.820768 3.49788 1.31909 2.71086C1.81742 1.89469 2.52093 1.23883 3.42964 0.743299C4.33835 0.247767 5.49622 0 6.90325 0Z" fill="white"/>
<path d="M19.3374 30.6939V0.262341H22.811V27.5458H31.7369V30.6939H19.3374Z" fill="white"/>
<path d="M47.647 30.6939L46.24 23.9168H39.4247L38.0616 30.6939H34.7199L41.2275 0.262341H44.4812L51.0767 30.6939H47.647ZM42.7224 6.47109L41.4473 13.5543L39.9963 20.6812H45.6244L44.1295 13.4669L42.8983 6.47109H42.7224Z" fill="white"/>
<path d="M67.149 30.6939L62.796 17.3583H59.4983V30.6939H56.0246V0.262341H62.752C65.2436 0.262341 67.0757 0.976491 68.2482 2.4048C69.4208 3.8331 70.007 6.0047 70.007 8.9196C70.007 10.6685 69.7432 12.2134 69.2156 13.5543C68.6879 14.8952 67.6327 15.9299 66.0497 16.6587L70.7105 30.6939H67.149ZM66.4894 8.9196C66.4894 8.10343 66.4308 7.36013 66.3136 6.6897C66.1963 6.01928 65.9618 5.45087 65.61 4.98449C65.2876 4.48895 64.8479 4.11001 64.291 3.84767C63.734 3.58533 63.0158 3.45416 62.1364 3.45416H59.4983V14.1664H62.4442C63.2357 14.1664 63.8952 14.0498 64.4229 13.8166C64.9505 13.5543 65.3609 13.1899 65.654 12.7236C65.9765 12.2572 66.1963 11.7033 66.3136 11.0621C66.4308 10.4208 66.4894 9.70663 66.4894 8.9196Z" fill="white"/>
<path d="M76.5613 30.6939V0.262341H80.0788V30.6939H76.5613Z" fill="white"/>
<path d="M93.5504 3.41044V30.6939H90.0328V3.41044H84.8444V0.262341H98.7388V3.41044H93.5504Z" fill="white"/>
<path d="M109.393 12.8547L113.351 0.262341H117L111.02 17.8392V30.7377H107.59V17.8392L101.611 0.262341H105.26L107.503 7.38928L109.217 12.8547H109.393Z" fill="white"/>
</svg>
